<svg width="1763" height="601" viewBox="0 0 1763 601" fill="none" xmlns="http://www.w3.org/2000/svg">
<path fill-rule="evenodd" clip-rule="evenodd" d="M713.69 113.44C702.27 113.44 692.017 116.227 682.93 121.8C673.837 127.373 666.667 135.537 661.42 146.29C656.18 157.043 653.56 169.92 653.56 184.92C653.56 200.187 656.08 213.23 661.12 224.05C666.167 234.87 673.27 243.067 682.43 248.64C691.59 254.213 702.143 257 714.09 257C722.85 257.007 730.783 255.413 737.89 252.22C744.99 249.04 750.863 245.06 755.51 240.28L743.17 224.75C738.39 228.33 733.873 231.083 729.62 233.01C725.373 234.937 720.53 235.9 715.09 235.9C704.737 235.9 696.503 231.717 690.39 223.35C684.29 214.99 681.24 202.18 681.24 184.92C681.24 167.267 684.323 154.323 690.49 146.09C696.67 137.863 704.87 133.75 715.09 133.75C723.983 133.75 732.48 137.003 740.58 143.51L753.92 127.97C747.947 123.057 741.84 119.407 735.6 117.02C729.36 114.627 722.057 113.433 713.69 113.44ZM850.75 226.14V181.94C850.75 157.78 837.277 145.697 810.33 145.69C797.983 145.697 785.24 148.223 772.1 153.27L778.07 170.58C788.957 166.867 798.25 165.01 805.95 165.01C812.85 165.01 817.86 166.37 820.98 169.09C824.1 171.81 825.66 176.557 825.66 183.33V189.3H812.52C797.113 189.3 785.263 192.32 776.97 198.36C768.677 204.4 764.53 213.13 764.53 224.55C764.53 234.237 767.583 242.067 773.69 248.04C779.79 254.02 788.087 257.007 798.58 257C805.213 257 811.22 255.71 816.6 253.13C821.98 250.537 826.46 246.587 830.04 241.28C832.033 246.193 834.92 249.84 838.7 252.22C842.487 254.613 847.367 256.073 853.34 256.6L858.72 239.68C855.927 238.62 853.9 237.127 852.64 235.2C851.38 233.28 850.75 230.26 850.75 226.14ZM805.35 238.49C800.437 238.483 796.72 237.09 794.2 234.31C791.68 231.523 790.42 227.603 790.42 222.55C790.413 210.343 798.643 204.24 815.11 204.24H825.66V225.55C820.747 234.177 813.977 238.49 805.35 238.49ZM987.77 145.69C981.13 145.697 975.257 147.223 970.15 150.27C965.037 153.33 960.357 157.71 956.11 163.41C954.117 157.843 950.897 153.5 946.45 150.38C942.003 147.253 936.727 145.69 930.62 145.69C918.28 145.69 908.123 151.267 900.15 162.42L898.16 148.68H876.06V254.02H901.55V180.74C904.737 175.293 907.823 171.277 910.81 168.69C913.79 166.103 917.407 164.81 921.66 164.81C929.36 164.81 933.21 170.453 933.21 181.74V254.02H958.7V180.74C961.887 175.293 964.973 171.277 967.96 168.69C970.94 166.103 974.49 164.81 978.61 164.81C986.31 164.81 990.16 170.453 990.16 181.74V254.02H1015.65V177.76C1015.65 167.933 1013.13 160.133 1008.08 154.36C1003.03 148.58 996.263 145.69 987.77 145.69ZM1065.17 148.68H1039.68V254.02H1065.17V148.68ZM1052.23 95.3199C1047.58 95.3199 1043.76 96.8133 1040.77 99.7999C1037.79 102.787 1036.3 106.47 1036.29 110.85C1036.3 115.23 1037.79 118.88 1040.77 121.8C1043.76 124.72 1047.58 126.18 1052.23 126.18C1057 126.18 1060.88 124.72 1063.87 121.8C1066.86 118.88 1068.36 115.23 1068.35 110.85C1068.36 106.47 1066.86 102.787 1063.87 99.7999C1060.88 96.8133 1057 95.3199 1052.23 95.3199ZM1146.29 145.7C1133.54 145.7 1122.86 151.277 1114.23 162.43L1112.24 148.68H1090.14V254.02H1115.62V180.74C1118.94 175.567 1122.36 171.62 1125.88 168.9C1129.4 166.18 1133.35 164.817 1137.73 164.81C1141.98 164.81 1145.2 166.07 1147.39 168.59C1149.58 171.117 1150.67 175.5 1150.67 181.74V254.02H1176.16V177.76C1176.16 167.673 1173.54 159.807 1168.3 154.16C1163.05 148.52 1155.72 145.7 1146.29 145.7ZM1256.49 145.7C1244.54 145.7 1234.32 150.877 1225.82 161.23V104.09L1200.34 106.67V254.02H1225.82V180.55C1229.14 175.503 1232.59 171.62 1236.18 168.9C1239.77 166.18 1243.68 164.817 1247.93 164.81C1252.18 164.81 1255.39 166.07 1257.58 168.59C1259.77 171.117 1260.87 175.5 1260.87 181.74V254.02H1286.36V177.76C1286.36 167.8 1283.7 159.967 1278.39 154.26C1273.08 148.553 1265.78 145.7 1256.49 145.7ZM1354.42 145.7C1344.2 145.7 1335.34 148.023 1327.84 152.67C1320.33 157.31 1314.59 163.813 1310.61 172.18C1306.63 180.547 1304.64 190.24 1304.64 201.26C1304.64 218.647 1309.02 232.287 1317.78 242.18C1326.55 252.067 1338.69 257.01 1354.22 257.01C1364.44 257.01 1373.27 254.687 1380.7 250.04C1388.13 245.4 1393.84 238.86 1397.83 230.42C1401.81 222 1403.8 212.28 1403.8 201.26C1403.8 184 1399.45 170.427 1390.76 160.54C1382.07 150.647 1369.95 145.7 1354.42 145.7ZM1354.42 165.01C1361.85 165.01 1367.46 167.967 1371.24 173.88C1375.03 179.787 1376.92 188.913 1376.92 201.26C1376.92 213.6 1375.03 222.757 1371.24 228.73C1367.46 234.703 1361.79 237.69 1354.22 237.69C1346.65 237.697 1340.98 234.747 1337.19 228.84C1333.41 222.927 1331.52 213.733 1331.52 201.26C1331.52 177.093 1339.15 165.01 1354.42 165.01ZM1456.89 145.7C1448.92 145.7 1441.85 147.027 1435.68 149.68C1429.51 152.34 1424.73 155.99 1421.34 160.63C1417.96 165.277 1416.27 170.523 1416.27 176.37C1416.26 184.197 1418.78 190.733 1423.83 195.98C1428.88 201.22 1436.78 205.3 1447.53 208.22C1454.43 210.213 1459.51 211.907 1462.76 213.3C1466.01 214.693 1468.27 216.287 1469.53 218.08C1470.79 219.873 1471.42 222.297 1471.42 225.35C1471.42 229.337 1469.73 232.457 1466.34 234.71C1462.96 236.97 1458.42 238.097 1452.71 238.09C1442.75 238.09 1433.19 234.64 1424.03 227.74L1411.29 242.07C1416.46 246.723 1422.6 250.377 1429.71 253.03C1436.81 255.683 1444.67 257.01 1453.3 257.01C1465.91 257.003 1476.47 254.05 1484.97 248.15C1493.46 242.243 1497.71 234.047 1497.71 223.56C1497.71 214.533 1494.96 207.497 1489.45 202.45C1483.94 197.41 1475.47 193.36 1464.05 190.3C1457.95 188.58 1453.34 187.02 1450.22 185.62C1447.1 184.233 1444.94 182.74 1443.75 181.14C1442.55 179.547 1441.95 177.557 1441.95 175.17C1441.95 171.983 1443.35 169.427 1446.14 167.5C1448.92 165.58 1452.83 164.617 1457.88 164.61C1466.51 164.617 1475.34 167.47 1484.37 173.17L1494.32 158.25C1483.57 149.883 1471.09 145.7 1456.89 145.7ZM1625.35 103.68V157.05C1617.78 149.477 1608.96 145.693 1598.87 145.7C1590.37 145.7 1582.9 148.09 1576.47 152.87C1570.03 157.65 1565.08 164.253 1561.63 172.68C1558.18 181.113 1556.45 190.707 1556.45 201.46C1556.45 218.58 1559.9 232.117 1566.81 242.07C1573.71 252.03 1583.6 257.01 1596.48 257.01C1602.99 257.003 1608.79 255.543 1613.9 252.63C1619.01 249.71 1623.23 245.727 1626.55 240.68L1628.34 254.02H1650.84V106.47L1625.35 103.68ZM1603.65 237.69C1597.01 237.69 1591.96 234.87 1588.51 229.23C1585.06 223.583 1583.33 214.257 1583.34 201.25C1583.34 189.037 1585.3 179.91 1589.21 173.87C1593.13 167.83 1598.47 164.81 1605.24 164.81C1609.35 164.81 1612.97 165.74 1616.09 167.6C1619.21 169.453 1622.3 172.24 1625.35 175.96V224.15C1622.3 228.797 1619.05 232.217 1615.6 234.41C1612.15 236.597 1608.16 237.69 1603.65 237.69ZM1754.37 226.14V181.94C1754.37 157.773 1740.89 145.69 1713.94 145.69C1701.6 145.69 1688.86 148.213 1675.71 153.26L1681.69 170.58C1692.57 166.867 1701.86 165.01 1709.56 165.01C1716.47 165.01 1721.48 166.37 1724.6 169.09C1727.71 171.81 1729.27 176.553 1729.28 183.32V189.3H1716.14C1700.73 189.3 1688.88 192.32 1680.59 198.36C1672.29 204.4 1668.14 213.13 1668.14 224.55C1668.14 234.237 1671.19 242.067 1677.3 248.04C1683.41 254.013 1691.7 257 1702.19 257C1708.83 257 1714.84 255.707 1720.22 253.12C1725.59 250.533 1730.07 246.587 1733.66 241.28C1735.65 246.187 1738.53 249.833 1742.32 252.22C1746.1 254.613 1750.98 256.073 1756.96 256.6L1762.33 239.68C1759.54 238.62 1757.52 237.127 1756.26 235.2C1754.99 233.28 1754.36 230.26 1754.37 226.14ZM1708.97 238.48C1704.06 238.48 1700.34 237.087 1697.81 234.3C1695.29 231.52 1694.03 227.603 1694.03 222.55C1694.03 210.343 1702.26 204.237 1718.73 204.23H1729.28V225.54C1724.37 234.167 1717.6 238.48 1708.97 238.48ZM749.94 288.78C731.04 288.78 714.33 293.057 699.81 301.61C685.283 310.163 673.947 322.593 665.8 338.9C657.64 355.213 653.56 374.71 653.56 397.39C653.56 420.663 657.54 440.507 665.5 456.92C673.453 473.327 684.74 485.757 699.36 494.21C713.98 502.663 731.137 506.893 750.83 506.9C764.157 506.893 776.54 504.307 787.98 499.14C799.413 493.973 809.21 487.307 817.37 479.14L792.9 448.11C785.74 453.683 779.127 457.91 773.06 460.79C766.993 463.683 760.38 465.127 753.22 465.12C739.893 465.12 729.5 459.55 722.04 448.41C714.58 437.27 710.85 420.263 710.85 397.39C710.85 374.51 714.53 357.403 721.89 346.07C729.25 334.73 739.493 329.06 752.62 329.06C759.187 329.06 765.353 330.253 771.12 332.64C776.893 335.027 782.86 338.507 789.02 343.08L814.98 312.35C805.833 304.59 795.99 298.723 785.45 294.75C774.903 290.77 763.067 288.78 749.94 288.78Z" fill="#F0F0F0"/>
<path fill-rule="evenodd" clip-rule="evenodd" d="M968.06 437.38H870.78C872.173 449.513 875.607 457.817 881.08 462.29C886.547 466.763 894.353 469 904.5 469C910.467 469 916.383 467.857 922.25 465.57C928.117 463.283 934.533 459.753 941.5 454.98L962.98 484.22C954.627 491.187 945.08 496.707 934.34 500.78C923.6 504.86 911.963 506.9 899.43 506.9C872.377 506.9 851.837 499.29 837.81 484.07C823.783 468.85 816.773 448.413 816.78 422.76C816.78 406.647 819.713 392.123 825.58 379.19C831.44 366.257 840.143 356.013 851.69 348.46C863.223 340.9 877.147 337.12 893.46 337.12C916.733 337.12 935.133 344.33 948.66 358.75C962.187 373.177 968.95 393.417 968.95 419.47C968.95 420.663 968.653 426.633 968.06 437.38ZM916.74 404.56C916.54 394.02 914.747 385.86 911.36 380.08C907.98 374.32 902.31 371.44 894.35 371.44C886.99 371.44 881.423 374.023 877.65 379.19C873.863 384.363 871.477 393.417 870.49 406.35H916.74V404.56ZM995.41 494.36C987.257 486.013 983.18 473.983 983.18 458.27V279.83L1036.29 274.46V456.48C1036.29 462.247 1038.88 465.13 1044.05 465.13C1046.24 465.13 1048.52 464.73 1050.91 463.93L1060.76 501.53C1052.6 505.11 1042.35 506.9 1030.02 506.9C1015.1 506.9 1003.56 502.72 995.41 494.36ZM1205.5 501.53H1159.25L1157.17 482.73C1146.02 498.843 1130.21 506.9 1109.72 506.9C1095 506.9 1083.91 502.473 1076.45 493.62C1068.99 484.773 1065.26 472.49 1065.26 456.77V342.49H1118.37V449.91C1118.37 456.67 1119.42 461.393 1121.51 464.08C1123.6 466.767 1126.73 468.11 1130.91 468.11C1134.68 468.11 1138.41 466.767 1142.09 464.08C1145.78 461.4 1149.21 457.473 1152.39 452.3V342.49H1205.5V501.53ZM1240.41 494.36C1232.25 486.013 1228.17 473.983 1228.17 458.27V279.83L1281.29 274.46V456.48C1281.29 462.247 1283.87 465.13 1289.04 465.13C1291.23 465.13 1293.52 464.73 1295.9 463.93L1305.75 501.53C1297.6 505.11 1287.35 506.9 1275.02 506.9C1260.1 506.9 1248.56 502.72 1240.41 494.36Z" fill="#F0F0F0"/>
<path fill-rule="evenodd" clip-rule="evenodd" d="M1382.52 337.12C1366.21 337.12 1352.04 340.6 1340.01 347.56C1327.97 354.527 1318.77 364.373 1312.4 377.1C1306.03 389.833 1302.85 404.753 1302.86 421.86C1302.85 448.713 1309.91 469.6 1324.04 484.52C1338.16 499.44 1357.65 506.9 1382.52 506.9C1398.83 506.9 1413.01 503.417 1425.04 496.45C1437.07 489.49 1446.27 479.643 1452.64 466.91C1459.01 454.19 1462.19 439.273 1462.19 422.16C1462.19 395.3 1455.13 374.41 1441.01 359.49C1426.88 344.577 1407.39 337.12 1382.52 337.12ZM1382.52 375.61C1391.07 375.61 1397.39 379.29 1401.47 386.65C1405.54 394.017 1407.58 405.853 1407.59 422.16C1407.58 438.073 1405.54 449.76 1401.47 457.22C1397.39 464.68 1391.07 468.41 1382.52 468.41C1373.97 468.41 1367.65 464.78 1363.58 457.52C1359.5 450.26 1357.46 438.373 1357.46 421.86C1357.46 405.947 1359.5 394.26 1363.58 386.8C1367.65 379.34 1373.97 375.61 1382.52 375.61ZM1537.66 337.12C1523.73 337.12 1511.75 339.307 1501.7 343.68C1491.65 348.06 1483.95 354.077 1478.58 361.73C1473.21 369.39 1470.52 377.897 1470.52 387.25C1470.52 411.71 1485.94 428.517 1516.77 437.67C1526.92 440.657 1534.08 442.993 1538.25 444.68C1542.43 446.373 1545.27 448.117 1546.76 449.91C1548.25 451.703 1549 454.19 1549 457.37C1548.99 461.543 1547.25 464.673 1543.78 466.76C1540.29 468.853 1535.37 469.9 1529 469.9C1521.84 469.9 1514.73 468.507 1507.67 465.72C1500.6 462.933 1493.99 459.153 1487.83 454.38L1462.46 482.73C1470.62 490.297 1480.62 496.213 1492.45 500.48C1504.28 504.76 1516.97 506.9 1530.5 506.9C1544.42 506.9 1556.9 504.71 1567.94 500.33C1578.98 495.957 1587.63 489.74 1593.9 481.68C1600.17 473.627 1603.3 464.23 1603.3 453.49C1603.3 439.763 1599.42 429.07 1591.66 421.41C1583.9 413.75 1571.87 407.533 1555.56 402.76C1545.81 399.78 1538.7 397.343 1534.23 395.45C1529.75 393.563 1526.81 391.823 1525.42 390.23C1524.03 388.643 1523.33 386.553 1523.33 383.96C1523.34 380.98 1524.68 378.643 1527.36 376.95C1530.05 375.257 1534.18 374.41 1539.75 374.41C1552.68 374.417 1565.51 378.397 1578.24 386.35L1597.33 357.11C1589.97 350.943 1581.07 346.07 1570.63 342.49C1560.18 338.91 1549.19 337.12 1537.66 337.12ZM1762.33 419.47C1762.33 393.417 1755.57 373.177 1742.05 358.75C1728.52 344.33 1710.11 337.12 1686.84 337.12C1670.53 337.12 1656.6 340.9 1645.07 348.46C1633.53 356.013 1624.83 366.257 1618.96 379.19C1613.09 392.123 1610.16 406.647 1610.16 422.76C1610.16 448.413 1617.17 468.85 1631.2 484.07C1645.22 499.29 1665.76 506.9 1692.81 506.9C1705.34 506.9 1716.98 504.86 1727.72 500.78C1738.47 496.707 1748.02 491.187 1756.37 484.22L1734.89 454.98C1727.92 459.753 1721.5 463.283 1715.64 465.57C1709.77 467.857 1703.85 469 1697.88 469C1687.74 469 1679.93 466.763 1674.46 462.29C1668.99 457.817 1665.56 449.513 1664.17 437.38H1761.44C1762.03 426.633 1762.33 420.663 1762.33 419.47ZM1710.12 406.35H1663.87C1664.86 393.417 1667.25 384.363 1671.03 379.19C1674.81 374.023 1680.38 371.44 1687.74 371.44C1695.69 371.44 1701.36 374.32 1704.75 380.08C1708.13 385.86 1709.92 394.02 1710.12 404.56V406.35Z" fill="#F0F0F0"/>
<path d="M302.13 49.08C276.73 32.37 248.66 19.43 218.7 11.01C242.01 4.46 266.47 0.67 291.71 0C320.74 0.77 348.73 5.69 375.14 14.17C378.35 15.18 381.51 16.28 384.66 17.4C421.61 30.64 455.21 50.9 483.84 76.59C531.43 119.23 565.33 176.84 578.1 242.05C556.58 231.22 532.28 225.12 506.54 225.12C479.75 225.12 454.51 231.73 432.35 243.38C424.47 202.21 408.19 164.04 385.33 130.7C363.19 98.38 334.88 70.6 302.13 49.08Z" fill="#F0F0F0"/>
<path d="M506.54 394.08C530.3 394.08 552.87 388.9 573.13 379.54C555.59 443.89 517.15 499.6 465.58 538.95C438.66 559.59 408.13 575.71 375.14 586.27C355.81 592.47 335.66 596.78 314.86 598.92C307.22 599.72 299.503 600.227 291.71 600.44C266.47 599.77 242.01 595.98 218.7 589.43C248.66 581.01 276.73 568.07 302.13 551.36C331.51 532.06 357.31 507.73 378.24 479.58C380.65 476.39 382.95 473.19 385.19 469.93C405 441.11 419.87 408.65 428.64 373.79C451.68 386.73 478.25 394.08 506.54 394.08Z" fill="#F0F0F0"/>
<path fill-rule="evenodd" clip-rule="evenodd" d="M166.87 300.06C166.87 224.8 194.54 156.02 240.31 103.32C241.05 102.44 241.833 101.56 242.66 100.68C244.93 97.6 246.24 93.81 246.24 89.69C246.24 81.3 240.71 74.18 233.09 71.8C203.07 61.67 170.9 56.22 137.49 56.22C135.03 56.22 132.573 56.25 130.12 56.31C126.56 56.4 123.1 57.54 120.26 59.68C47.22 114.47 0 201.75 0 300.06C0 393.61 42.76 477.15 109.82 532.23C111.82 533.87 114.16 535.04 116.66 535.65C139.44 541.18 163.26 544.11 187.75 544.11C213.85 544.11 239.19 540.78 263.35 534.51C268.5 533.17 270.02 526.62 266.07 523.06C205.15 468.11 166.87 388.56 166.87 300.06ZM196.15 519.44H174.34C151.51 499.28 131.75 475.71 115.9 449.53L142.1 441.03C156.45 470.09 174.74 496.5 196.15 519.44ZM131.75 418.07L102.96 425.77C93.76 406.95 86.47 387.03 81.36 366.23L114.27 361.61C118.55 381.18 124.43 400.05 131.75 418.07ZM109.72 336.56L76.04 339.5C73.79 324.72 72.64 309.58 72.64 294.16C72.64 278.76 73.79 263.63 76.04 248.84L107.58 251.6C106.54 262.53 106.03 273.65 106.03 284.88C106.03 302.47 107.29 319.72 109.72 336.56ZM125.42 168.56C119 187.04 114.08 206.31 110.82 226.23L81.36 222.08C86.47 201.28 93.76 181.37 102.96 162.55L125.42 168.56ZM166.19 87.66C153.97 105.41 143.36 124.55 134.59 144.84L115.93 138.77C127.08 120.36 140.18 103.22 154.93 87.66H166.19Z" fill="#F0F0F0"/>
</svg>
